# xmcd
#
# Track frame offsets:
#	150
#	16490
#	30773
#	44533
#	53556
#	66003
#	84477
#	96883
#	125578
#	144775
#
# Disc length: 2188 seconds
#
# Revision: 0
# Processed by: cddbd v1.5.2PL0 Copyright (c) Steve Scherf et al.
# Submitted via: EasyCDDAExtractor 11.1.0.1
#
DISCID=76088a0a
DTITLE=Breakout - Bluesbreakout
DYEAR=1900
DGENRE=
TTITLE0=Ona poszła inną drogą
TTITLE1=Kiedy byłem małym chłopcem
TTITLE2=Oni zaraz przyjdą tu
TTITLE3=Przyszła do mniebieda
TTITLE4=Pomaluj moje sny
TTITLE5=Usta me ogrzej
TTITLE6=gdybym był wichrem
TTITLE7=Co się stało kwiatom
TTITLE8=Dzisiejszej nocy
TTITLE9=Daję ci próg
EXTD=
EXTT0=
EXTT1=
EXTT2=
EXTT3=
EXTT4=
EXTT5=
EXTT6=
EXTT7=
EXTT8=
EXTT9=
PLAYORDER=
